<?xml version="1.0" encoding="utf-8"?>
<!-- Generator: Adobe Illustrator 19.0.0, SVG Export Plug-In . SVG Version: 6.00 Build 0)  -->
<svg version="1.1" id="Layer_1" xmlns="http://www.w3.org/2000/svg" xmlns:xlink="http://www.w3.org/1999/xlink" x="0px" y="0px"
	 viewBox="0 0 500 500" style="enable-background:new 0 0 500 500;" xml:space="preserve">
<style type="text/css">
	.st0{fill:#004C82;}
	.st1{fill:#EA4156;}
</style>
<g id="XMLID_1_">
	<polygon id="XMLID_31_" class="st0" points="78.1,219.4 78.6,219.4 79.4,219.6 80.3,219.7 82.8,220.3 86.2,221 88,221.4 90,221.9 
		92.2,222.2 94.3,222.8 96.7,223.1 99,223.7 106.4,225.1 108.7,225.8 111.2,226.2 113.3,226.7 115.7,227.1 117.8,227.6 120,227.9 
		121.8,228.4 123.7,228.7 125.2,229.2 126.6,229.5 127.9,229.6 128.9,229.8 129.7,229.9 130.2,230.1 130.5,230.1 132.5,230.5 
		134.3,230.9 135.9,231.3 137.1,231.6 138.4,232.1 139.3,232.4 140.5,233 141,233.3 141.8,234.1 141.8,234.2 141.9,234.4 
		141.9,234.6 148.6,234.6 149.2,234.7 149.8,234.7 150.3,234.9 150.7,234.9 151.2,235 152.4,235.6 152.6,235.9 153.6,237.6 
		154,239.7 153.6,242.1 152.9,244.4 152,246.8 151,248.6 150.3,249.8 149.9,250.3 149.6,250.5 148.9,250.8 147.8,251.2 146.2,251.9 
		144.5,252.5 142.4,253.4 140.1,254.3 137.4,255.3 134.5,256.5 131.4,257.6 128.3,258.8 121.5,261.6 118,263 114.4,264.2 
		110.9,265.8 107.2,267.1 103.6,268.4 100.2,269.9 96.7,271.2 93.4,272.4 87.2,274.9 84.5,275.9 81.8,276.9 79.5,277.8 77.5,278.6 
		75.8,279.3 74.4,279.8 73.3,280.3 72.7,280.4 72.6,280.6 152.4,280.6 165.4,219.1 78.1,219.1 	"/>
	<polygon id="XMLID_30_" class="st0" points="137.9,239.3 137.4,239.5 134.3,240.1 133.6,240.1 133,240.3 132.3,240.3 131.4,240.4 
		130.9,240.6 130.6,240.7 130.5,241 130.5,241.4 130.8,241.7 131.4,241.7 132,241.8 133.6,241.8 134.5,241.7 135.4,241.7 
		137.6,241.4 138.7,241.4 139.9,241.2 141,241 141.9,240.9 143,240.7 147.2,240.7 147.6,240.9 147.9,241 148.2,241.5 148.2,242.1 
		148.1,242.7 147.9,243.5 147.6,244.4 147.2,245.5 146.9,246.6 146.7,247.2 147,247.5 147.3,247.4 147.9,246.8 148.2,246.3 
		148.7,245.5 149.2,244.6 149.6,243.5 150.1,242.6 150.4,241.7 150.6,240.9 150.6,240 150.3,239.2 149.8,238.7 149.2,238.3 
		148.4,238 147.5,237.8 146.4,237.6 139.9,237.6 139.7,237.8 139.6,237.8 139.3,238 139,238.6 138.7,238.7 138.4,239 	"/>
	<polygon id="XMLID_29_" class="st0" points="75.2,233.3 65,280.6 65.5,280.4 66.4,279.8 67.9,279.2 69.9,278.1 72.3,277 
		74.9,275.6 78,274.3 80.9,272.7 84,271.3 86.9,269.8 89.9,268.4 92.6,267 95,265.8 97,264.8 98.5,264.1 99.6,263.6 101.1,262.8 
		102.5,262 104.2,261.3 105.9,260.3 107.5,259.6 109.3,258.8 111,257.9 112.9,257.1 114.7,256.2 124,252.3 128.2,250.9 128.8,250.8 
		129.4,250.5 130.2,250.3 133,249.4 136.2,248.5 137.3,248.3 140.5,247.4 142.4,247.1 143,246.9 143.5,246.8 143.9,246.8 
		144.4,246.6 144.7,246.3 144.8,246.3 144.8,246.1 144.5,245.5 144.1,245.4 143.5,245.2 142.8,245.2 141.9,245.1 141,245.1 
		139.9,245.2 138,245.4 136,245.7 133.9,246.1 131.6,246.6 129.2,247.2 126.8,248 124.5,248.8 122,249.5 119.7,250.5 117.4,251.2 
		115.2,252 113.2,252.8 111.3,253.7 109.8,254.3 108.4,254.9 107.3,255.6 101.4,237.3 138.8,237.3 139,236.6 138.4,235.8 
		137.4,235.3 136,234.9 134.5,234.4 130.5,233.8 124,233.3 	"/>
	<polygon id="XMLID_28_" class="st1" points="434.6,251.3 173,251.3 173.3,247.3 435,247.3 	"/>
	<path d="M184.8,242.6l-2-0.2l-2-0.5l-1.5-0.5l-1.4-0.9l-0.9-1.1l-0.6-1.4l-0.2-1.5l0.2-1.9l0.8-3.4l0.6-3.1l0.6-2.6l0.5-2.2
		l0.3-1.9l0.3-1.4l0.2-0.8l0.2-0.3h5.1l-0.2,0.6l-0.3,1.5l-0.6,2.3l-0.5,2.6l-0.6,2.6l-0.8,3.9l-0.2,0.5l-0.2,1.2v2.2l0.3,0.8
		l0.6,0.6l0.8,0.5l1.1,0.3l1.2,0.2l1.4-0.2l1.1-0.2l1.1-0.5l0.8-0.8l0.6-0.8l0.6-0.9l0.9-2.5l0.2-1.2l0.5-1.9l0.5-2.3l0.5-2.5
		l0.6-2.3l0.3-2l0.3-1.4l0.2-0.5h5.1l-0.9,4.5l-0.5,2.3l-0.3,0.8v0.3l-0.2,0.9l-0.5,2.3l-1.1,4.5l-0.2,0.9l-0.5,0.9l-0.3,0.8
		l-0.5,0.8l-0.6,0.8l-1.2,1.2l-0.8,0.5l-0.9,0.5l-0.8,0.5l-0.9,0.3l-0.9,0.2l-0.9,0.3l-2.2,0.3L184.8,242.6L184.8,242.6z
		 M422.4,222.8h-7.3l-1.2,0.3l-0.9,0.6l-0.2,0.3l-0.2,0.5v0.6l0.2,0.6l0.5,0.6l0.5,0.8l1.4,1.4l0.9,0.6l0.8,0.6l0.9,0.8l1.5,1.5
		l0.6,0.8l0.9,1.9l0.2,0.9l-0.2,1.1l-0.3,1.1l-0.5,1.1l-0.8,0.9l-1.1,0.8l-1.2,0.6l-1.5,0.5l-2,0.3l-2.2,0.2h-7.9l0.9-3.7h8.3
		l0.8-0.2l0.6-0.2l0.5-0.3l0.5-0.6l0.3-0.6l-0.2-1.2l-0.9-1.2l-1.5-1.2l-1.5-1.4l-1.7-1.5l-1.4-1.7l-0.9-1.7l-0.2-2l0.3-1.1l0.6-1.2
		l0.6-0.9l1.1-0.8l1.4-0.6l1.4-0.5l1.9-0.3h9L422.4,222.8L422.4,222.8z M404.5,222.8h-11.6l-1.4,6h10.2l-0.8,3.2h-10.2l-1.2,6.3
		h11.6l-0.8,3.7h-16.7l4.9-23h16.7L404.5,222.8L404.5,222.8z M384.4,222.8h-7.1l-4.2,19.3H368l4.2-19.3h-7.3l0.9-3.7h19.3
		L384.4,222.8L384.4,222.8z M348.9,242.1l2-3.7h7.3l-2-14.7l-10.2,18.4h-5.1l13.3-23h6l3.6,23H348.9L348.9,242.1z M347.9,222.8h-7.1
		l-4.2,19.3h-5.1l4.2-19.3h-7.3l0.9-3.7h19.3L347.9,222.8L347.9,222.8z M325.9,222.8h-7.1L318,223l-0.6,0.2l-0.5,0.3l-0.6,0.6v1.1
		l0.2,0.6l0.3,0.6l0.6,0.8l1.4,1.4l0.8,0.6l0.9,0.6l2.3,2.3l0.6,0.8l0.6,0.9l0.3,0.9l0.2,0.9v1.1l-0.3,1.1l-0.5,1.1l-0.9,0.9
		l-0.9,0.8l-1.4,0.6l-1.5,0.5L317,242l-2.3,0.2H307l0.8-3.7h8.5l0.8-0.2l0.6-0.2l0.5-0.3l0.5-0.6l0.2-0.6l-0.2-1.2l-0.9-1.2
		l-1.4-1.2l-1.5-1.4l-1.7-1.5l-1.4-1.7l-0.9-1.7l-0.2-2l0.3-1.1l0.5-1.2l0.8-0.9l1.1-0.8l1.2-0.6l1.5-0.5l1.9-0.3h9L325.9,222.8
		L325.9,222.8z M279.2,230.5l-2.3,11.6h10.3l1.2-0.2h1.2l2.2-0.6l1.2-0.5l1.1-0.6l1.9-1.2l1.9-1.9l1.5-2.2l0.6-1.2l0.5-1.2l0.3-1.4
		l0.2-0.6l0.2-0.9l0.3-2.2l-0.2-2l-0.5-1.7l-0.8-1.5l-1.2-1.4l-1.5-0.9l-2-0.6l-2.3-0.2h-11.3L279.2,230.5L279.2,230.5z M296,230.5
		l-0.2,0.8l-0.5,0.9l-0.3,0.8l-0.3,0.9l-0.5,0.6l-0.6,0.8l-1.2,1.2l-1.5,0.9l-0.8,0.3l-0.9,0.3l-1.9,0.3h-4.6l1.5-7.9l1.7-7.7h6.6
		l1.2,0.5l0.9,0.6l0.8,0.9l0.5,0.9l0.3,1.2v2.5l-0.3,0.9L296,230.5L296,230.5z M277.2,222.8h-11.4l-1.4,6h10l-0.6,3.2h-10.2
		l-1.2,6.3h11.4l-0.6,3.7h-16.7l4.9-23H278L277.2,222.8L277.2,222.8z M257.3,222.8H250l-4.2,19.3h-4.9l4.2-19.3h-7.3l0.8-3.7h19.3
		L257.3,222.8L257.3,222.8z M230.3,242.1h-4.9l4.8-23h5.1L230.3,242.1L230.3,242.1z M220.4,242.1H214l-5.7-17.1h-0.2l-3.6,17.1h-4.5
		l4.9-23h6.5l5.6,17.3l3.6-17.3h4.6L220.4,242.1L220.4,242.1z"/>
	<path d="M178.1,271.8h-0.6l-0.3-0.2h-0.9l-0.3-0.2h-0.3l-0.3-3.2h1.2l0.2,0.2h0.9l1.2-0.2l1.9-0.6l0.6-0.6l0.9-1.2l0.3-0.6v-0.6
		l0.2-0.8V263l-0.2-0.6l-0.3-0.5l-0.9-0.6h-0.6l-0.6-0.2h-4.2l-4.2,19.3h-5.1l4.9-23h11l1.7,0.2l1.2,0.6l1.1,0.8l0.6,1.1l0.3,1.1
		l0.2,1.2v1.2l-0.2,1.1l-0.5,1.5l-0.8,1.4l-0.9,1.2l-1.2,1.1l-1.2,0.8l-3.1,0.9L178.1,271.8L178.1,271.8z M432.3,261.1h-11.7l-1.2,6
		h10.2l-0.8,3.4h-10.2l-1.2,6.3h11.6l-0.8,3.5h-16.7l4.9-23H433L432.3,261.1L432.3,261.1z M411.7,261.4l-0.6-0.2h-0.5l-1.2-0.3
		l-0.8-0.2h-0.8l-0.6-0.2h-0.9l-1.7,0.2l-1.5,0.5l-1.5,0.6l-1.4,1.1l-1.1,1.1l-1.1,1.4l-0.6,1.7l-0.6,1.9l-0.3,1.9l0.2,1.7l0.5,1.4
		l0.6,1.1l0.9,0.9l1.2,0.8l1.4,0.5l1.5,0.2h0.9l0.9-0.2h0.8l1.5-0.3h0.6l0.8-0.2l0.6-0.2l-1.2,3.9l-0.6,0.2h-0.8l-0.6,0.2h-0.8
		l-0.6,0.2h-3.6l-2.5-0.3l-1.1-0.3l-1.1-0.5l-0.9-0.5l-0.9-0.6l-0.8-0.6l-0.8-0.8l-0.5-0.9l-0.5-1.1l-0.5-0.9l-0.2-1.2v-1.2l0.2-1.4
		l0.2-1.5l0.5-1.4l0.5-1.5l1.2-2.5l0.8-1.1l1.9-1.9l1.1-0.8l2.2-1.2l2.5-0.9l1.2-0.3l1.2-0.2l1.4-0.1h3.2l0.6,0.1h0.6l0.6,0.2h0.6
		l0.6,0.2L411.7,261.4L411.7,261.4z M386.2,280.4h-5.1l4.9-23h5.1L386.2,280.4L386.2,280.4z M369.9,280.4h-6l-3.4-23h5.1l2.3,18.5
		l10.2-18.5h4.9L369.9,280.4L369.9,280.4z M351.2,270.5l3.7,9.9h-5.6l-4.2-12.5h2.9l0.9-0.2l0.9-0.3l0.8-0.5l0.6-0.5l0.6-0.6
		l0.3-0.8l0.3-0.9l0.1-0.6V263l-0.3-0.9l-0.3-0.3l-0.6-0.3l-1.5-0.3h-4.6l-4.2,19.3H336l4.9-23h10.7l1.5,0.2l1.4,0.3l1.1,0.5
		l0.8,0.6l0.6,0.8l0.5,1.1l0.2,1.2v1.2l-0.2,1.5l-0.5,1.4l-0.6,1.2l-0.8,0.9l-0.9,0.9l-1.2,0.6l-1.1,0.5L351.2,270.5L351.2,270.5z
		 M336.5,261.1h-11.6l-1.2,6h10l-0.6,3.4h-10.2l-1.2,6.3h11.6l-0.8,3.5h-16.8l4.9-23h16.7L336.5,261.1L336.5,261.1z M315.5,261.1
		H309l-1.5,0.3l-0.6,0.2l-0.3,0.3l-0.5,0.3l-0.3,0.6v0.8l0.2,0.6l0.3,0.6l0.6,0.6l0.6,0.8l0.8,0.6l0.8,0.8l0.9,0.6l0.8,0.8l0.9,0.6
		l0.6,0.9l0.6,0.8l0.6,0.9l0.3,0.8l0.2,1.1v0.9l-0.3,1.2l-0.5,0.9l-1.9,1.9l-1.2,0.6l-1.7,0.5l-1.9,0.3h-10l0.8-3.5h8.5l0.8-0.2
		l0.6-0.3l0.5-0.3l0.5-0.5l0.3-0.6l-0.3-1.2l-0.9-1.2l-1.4-1.4l-1.5-1.4l-1.7-1.4l-1.4-1.7l-0.9-1.9l-0.2-1.9l0.3-1.2l0.5-1.1
		l0.8-0.9l1.1-0.8l1.2-0.6l1.5-0.5l1.9-0.3l2.2-0.2h6.8L315.5,261.1L315.5,261.1z M288,280.4h-15.6l4.8-23h5.2l-4.2,19.5h10.5
		L288,280.4L288,280.4z M255,280.4l2-3.5h7.3l-2.2-14.8l-10,18.4h-5.1l13.1-23h6.2l3.6,23H255L255,280.4z M254,261.1h-7.3l-4.2,19.3
		h-5.1l4.2-19.3h-7.1l0.8-3.7h19.3L254,261.1L254,261.1z M232,261.1h-6.5l-1.5,0.3l-0.5,0.2l-0.5,0.3l-0.6,0.6l-0.2,0.3v0.8l0.2,0.6
		l0.9,1.2l0.6,0.8l0.8,0.6l0.8,0.8l0.9,0.6l0.9,0.8l0.8,0.6l0.6,0.9l0.8,0.8l0.5,0.9l0.3,0.8l0.3,1.1l-0.2,0.9l-0.3,1.2l-0.5,0.9
		l-0.8,0.9l-0.9,0.9l-1.4,0.6l-1.7,0.5l-1.9,0.3h-9.9l0.6-3.5h8.6l0.6-0.2l1.2-0.6l0.3-0.5l0.3-0.6l-0.2-1.2l-0.9-1.2l-1.4-1.4
		l-1.7-1.4l-1.5-1.4l-1.4-1.7l-0.9-1.9l-0.3-1.9l0.3-1.2l0.6-1.1l0.8-0.9l0.9-0.8l1.2-0.6l1.7-0.5l1.9-0.3l2-0.2h6.8L232,261.1
		L232,261.1z M189,269l-0.3,2.5l0.5,3.2l0.9,1.9l0.6,0.9l1.4,1.4l0.9,0.6l0.9,0.5l1.1,0.5l1.2,0.3l1.2,0.2h2.6l2.5-0.3l1.2-0.3
		l1.2-0.5l1.1-0.5l0.9-0.6l1.1-0.6l0.9-0.8l0.8-0.9l0.9-0.9l0.6-1.1l1.2-2.5l0.5-1.4l0.3-1.5l0.3-1.2v-2.3l-0.2-1.2l-0.2-1.1
		l-0.9-1.9l-1.2-1.5l-0.8-0.6l-0.9-0.6l-0.9-0.5l-1.2-0.5l-1.1-0.3l-1.2-0.1h-2.6l-2.5,0.3l-1.2,0.3l-1.2,0.5l-1.1,0.5l-0.9,0.6
		l-1.1,0.8l-0.9,0.6l-0.9,0.9l-0.8,1.1l-0.8,0.9l-0.6,1.2l-0.5,1.2l-0.5,1.5L189,269L189,269z M208.3,269l-0.5,1.9l-0.8,1.7
		l-0.8,1.4l-1.1,1.1l-1.2,0.9l-1.4,0.8l-1.4,0.5l-1.7,0.2l-1.7-0.2l-1.2-0.6l-1.1-0.8l-0.8-1.1l-0.5-1.1l-0.3-1.5v-1.5l0.3-1.5
		l0.5-1.9l0.8-1.7l0.8-1.4l1.1-1.1l1.2-1.1l1.4-0.6l1.4-0.5l1.7-0.2l1.5,0.3l1.4,0.3l1.1,0.9l0.8,0.9l0.5,1.2l0.3,1.4v1.5L208.3,269
		L208.3,269z"/>
</g>
</svg>
